<svg xmlns="http://www.w3.org/2000/svg" viewBox="0 0 413.34 42.34"><defs><style>.cls-1{fill:#fff;}.cls-2{fill:#1f417c;}.cls-3{fill:#96bee5;}</style></defs><title>EECS-rev-RGB-colors</title><g id="Layer_2" data-name="Layer 2"><g id="Layer_1-2" data-name="Layer 1"><path class="cls-1" d="M19.12,42.19C10.66,37.16,0,29.85,0,17V3.32A51.86,51.86,0,0,1,19.12,0,52.69,52.69,0,0,1,38.24,3.32V17C38.24,30,27.16,37.46,19.12,42.19Z"/><path class="cls-2" d="M24.87,24.54c0-.29.24-.74.24-1.14s-.59-.63-1-.69c-1-.13-1.28-.09-1.28-.3s.13-.3.31-.55a1.8,1.8,0,0,1,1.19-.55,10.3,10.3,0,0,1,1.48-.12,8.5,8.5,0,0,1,1.43.14c.58.1.67.35.67.62v.28c0,.28-.22.42-.63.51l-.32.06c-.29.06-.66.12-.79.49-.28.81-.76,1.44-1.12,1.42C24.94,24.71,24.87,24.66,24.87,24.54Zm.84-12.94s-.15-.07-.15-.19.1-.29.31-.57c.47-.64,1.13-1.43,1.37-1.43s.19.09.34.36a1.57,1.57,0,0,1,.16.7A3.56,3.56,0,0,1,27,12.6,6.27,6.27,0,0,0,25.71,11.6Zm-14,1.59c.21,0,.38-.14.7-.5.73-.81,1.43-.91,1.43-1.26a1,1,0,0,0-.2-.46A29,29,0,0,1,12,8.23c-.16-.32-.38-.54-.55-.54s-.55.32-.71.58a2.56,2.56,0,0,0-.46,1.19,8.45,8.45,0,0,0,.38,2.34C11,12.54,11.34,13.19,11.67,13.19ZM20.4,16a1.47,1.47,0,0,0-1.55-1.24,1.89,1.89,0,0,0-1.71,1.18A1.78,1.78,0,0,0,18.39,17c.11,0,.22,0,.22.13s-.14.2-.44.2a2.17,2.17,0,0,1-1.76-.71,7.42,7.42,0,0,1-.88.14.39.39,0,0,1-.43-.44,1.31,1.31,0,0,1,.15-.56l.16-.31A2.79,2.79,0,0,1,16.65,14l.49-.3a2.55,2.55,0,0,1,1.44-.35H19a1.91,1.91,0,0,1,1.36.45c.63.53,1,.82,1,1.21A1.71,1.71,0,0,1,21,16.27a1.53,1.53,0,0,1-1,.65c-.08,0-.1,0-.1-.09s.06-.09.13-.14A1.78,1.78,0,0,0,20.4,16Zm4.2,13.4a8,8,0,0,1-1.92.12c-2.17,0-2.54-.54-2.54-1,0-.71,3.11-1.2,4.34-1.2s1.69.37,1.69.66A2,2,0,0,1,24.6,29.39ZM12.08,35.74a68.21,68.21,0,0,0,7,4.73h0c0-2.12-.05-3.38,1.39-4.88l1.73-1.8c.41-.42.74-.73.93-.73s.2.07.2.25A4.18,4.18,0,0,0,23.89,35a2.12,2.12,0,0,0,1.58,1.23c6.16-4.63,11.32-10.71,11.32-19.34V4.33A50.71,50.71,0,0,0,19.12,1.42,50.71,50.71,0,0,0,1.45,4.33V16.92a20,20,0,0,0,2.63,10c.17-1.75,1.35-2.58,1.35-4.3,0-1.2-.34-2-.34-3,0-1.81,2.45-5.55,3.72-7.07,0,0,.12-.15.22-.15a.26.26,0,0,1,.22.15c.13.2.18.3.32.3a.18.18,0,0,0,.2-.2,10.46,10.46,0,0,1-.37-2.9,2.88,2.88,0,0,1,1.23-2.63,2,2,0,0,1,1.15-.64c.53,0,.79.31,1.12.65.55.56,1.33,1.56,1.45,1.72s.07.08.14.08c.26,0,.48-.08,1.59-.08a26.62,26.62,0,0,1,6.64.83,10.79,10.79,0,0,0,1.18.45c.11,0,.12-.07.12-.12s-.22-.27-.22-.41a.26.26,0,0,1,.15-.2A7.2,7.2,0,0,1,27,8.34c.53,0,.8.46,1,.92a3.14,3.14,0,0,1,.36,1.32,4.06,4.06,0,0,1-.85,2.52c.18.18.44.46.59.65A2.07,2.07,0,0,1,28.76,15a3.88,3.88,0,0,1-.15.74c0,.11-.11.33-.3.32s-.22-.19-.22-.35v-.13a1.9,1.9,0,0,0-1.6-1.84h-.15a1.61,1.61,0,0,0-1.25.5,1.21,1.21,0,0,0-.39.88,2.34,2.34,0,0,0,.35.87c.11.24.41.79.58,1.08a.58.58,0,0,0,.53.34c.5,0,.94-.07.94-.22s0-.08-.09-.08h-.16c-.66,0-1-.84-1.34-1.6a1.42,1.42,0,0,1,1-.49,1,1,0,0,1,1.09,1,1.58,1.58,0,0,1-.14.63.21.21,0,0,0,0,.11c0,.09.11.11.29.15L28,17a.74.74,0,0,1,.48.45l.22.6A4,4,0,0,1,29,19.37a3.86,3.86,0,0,1-.19,1.33,7.84,7.84,0,0,0-.33,1.44,2,2,0,0,1,.11.24,2.86,2.86,0,0,1,.26,1.14v.39a3,3,0,0,1-.62,1.77c-.25.34-.62.82-.82,1.08a.72.72,0,0,1-.52.28,1.37,1.37,0,0,1-.32-.06l-.51-.13a1.06,1.06,0,0,1-.75-.78l-.1-.28c-.11-.27-.17-.44-.34-.44s-.24.08-.36.27a2,2,0,0,1-1.46,1.09L21.93,27a11.06,11.06,0,0,1-1.76.32l-.31,0A2.38,2.38,0,0,1,18,26.18c-1.09-1.29-1-1.48-1-3.23,0-.2-.08-.44-.28-.44s-.26.37-.33.9-.22,1.26-.52,1.26a1.9,1.9,0,0,1-.69-.14l-1.9-.63c-.7-.24-1.38-.42-1.65-1l-.49-1.12c-.08-.2-.14-.31-.27-.31s-.23.22-.25.4-.08.66-.1.95a3.94,3.94,0,0,1-.87,2.42c-.24.31-.46.63-.73,1A4.11,4.11,0,0,0,8,29v.85C8.06,31.94,8.59,33,12.08,35.74Z"/><path class="cls-3" d="M28.5,17.41h0l.22.6A4,4,0,0,1,29,19.37a3.86,3.86,0,0,1-.19,1.33,7.84,7.84,0,0,0-.33,1.44c-.05-.11-1.12-1.95-1.2-2.1a1,1,0,0,1-.15-.46c0-.19.08-.3.31-.45l.43-.24a1,1,0,0,0,.68-1A2.61,2.61,0,0,0,28.5,17.41Zm-4.63,2.94a1.19,1.19,0,0,1,.11.43.62.62,0,0,1-.22.52l-.29.25a1,1,0,0,0-.37.31c-.18.25-.31.41-.31.55a.14.14,0,0,0,.05.11.76.76,0,0,1-.29-.62c0-.19.06-.29.06-.47a1.3,1.3,0,0,0-.07-.39c-.29-1-.79-2.16-1.1-3s-.55-1.26-.91-1.26c-.19,0-.37.1-.57.1a1.53,1.53,0,0,0,1-.65,1.71,1.71,0,0,0,.37-1.22.75.75,0,0,0-.22-.52,5.68,5.68,0,0,1,1,1.67C22.82,17.61,23.39,19.15,23.87,20.35ZM8,29.87V29a4.11,4.11,0,0,1,.85-2.85c.27-.35.49-.67.73-1a3.94,3.94,0,0,0,.87-2.42c0-.29.07-.75.1-.95s.06-.4.25-.4.19.11.27.31l.49,1.12c.27.63.95.81,1.65,1l1.9.63a1.9,1.9,0,0,0,.69.14c.3,0,.44-.64.52-1.26s.15-.9.33-.9.27.24.28.44c.06,1.75-.05,1.94,1,3.23a2.38,2.38,0,0,0,1.88,1.08.87.87,0,0,1-.54-.92v-.63a2.38,2.38,0,0,1,.19-1c.07-.17.16-.48.24-.67a1,1,0,0,0,.07-.63,3.56,3.56,0,0,0-.26-1.05c-.1-.29-.23-.72-.36-1.07-.39-1.1-.55-1.36-1.87-1.54l-2.66-.37c-1.47-.21-2.63-.28-3.23-1.27-.72-1.18-.65-2.62-1.34-2.62-.33,0-.5.36-.5.9s.21,1.47.21,3.05a3.39,3.39,0,0,1-.93,2.76c-.2.27-.48.65-.66.87a2.67,2.67,0,0,0-.82,2A29.81,29.81,0,0,0,8,29.87Zm15.07,5.28c.05-.55.29-1.46.29-1.84h0c0-.18-.06-.25-.2-.25s-.52.31-.93.73l-1.73,1.8c-1.44,1.5-1.37,2.76-1.39,4.88h0c1.6-1,3.06-1.89,4.15-2.63A8.1,8.1,0,0,1,23.08,35.15Z"/><path class="cls-1" d="M121.57,11.94h6.2c0-3.19-1.56-5-4.22-5s-4.39,1.81-4.39,4.62c0,1.06.34,4.53,4.8,4.53a8.06,8.06,0,0,0,3.2-.54V13.88a6.71,6.71,0,0,1-2.67.52A2.63,2.63,0,0,1,121.57,11.94Zm-8.78-3.25H114v5c0,1.5,1.07,2.43,2.8,2.43a7.72,7.72,0,0,0,1.88-.27V14.28a5.44,5.44,0,0,1-1,.12c-1.07,0-1.49-.46-1.49-1.65V8.69h2.38V7.13h-2.38V5.22H114V7.13h-1.21Zm-6.67.08a4.79,4.79,0,0,1,1.45-.29c1.31,0,1.89.56,1.89,1.8v.51h-1.15c-2.94,0-4.49,1-4.49,2.77,0,1.52,1.14,2.51,2.9,2.51a3.31,3.31,0,0,0,2.89-1.42h.06l.07,1.21h2.72V14.3h-.92v-4c0-2.27-1.35-3.42-4-3.42a7.34,7.34,0,0,0-3.29.89V9.93h1.87Zm-9-.08h1.21v5c0,1.5,1.07,2.43,2.8,2.43a7.52,7.52,0,0,0,1.87-.27V14.28a5,5,0,0,1-1,.12c-1.07,0-1.49-.46-1.49-1.65V8.69H103V7.13h-2.38V5.22H98.38V7.13H97.17Zm-7.42,5.25V12.42H87.67v3a11.8,11.8,0,0,0,4,.64c3,0,4.59-1.32,4.59-3.71s-1.78-3.09-3.44-3.53L91.6,8.52c-1-.25-1.45-.77-1.45-1.55s.63-1.5,2-1.5a4.52,4.52,0,0,1,1.49.3V7.21h2.08V4.51a10.55,10.55,0,0,0-3.64-.6c-2.82,0-4.38,1.17-4.38,3.3,0,1.91.89,2.92,3.06,3.51l1,.28c1.43.38,2,.9,2,1.78s-.7,1.52-2,1.52A9,9,0,0,1,89.75,13.94Zm-32.68-2h6.2c0-3.19-1.56-5-4.22-5s-4.39,1.81-4.39,4.62c0,1.06.35,4.53,4.8,4.53a8.06,8.06,0,0,0,3.2-.54V13.88A6.71,6.71,0,0,1,60,14.4,2.63,2.63,0,0,1,57.07,11.94Zm13.42,3.92H74.7V14.3h-1V10.39a3.2,3.2,0,0,0-3.36-3.47A3.16,3.16,0,0,0,67.52,8.3h-.06l-.07-1.16h-3.1V8.69h1.16V14.3h-1v1.56h4.2V14.3h-1V10.8a1.9,1.9,0,1,1,3.8,0v3.5h-1Zm-26.06,0h4.66V14.3H47.92v-3h1.89c2.69,0,4.3-1.33,4.3-3.57s-1.61-3.58-4.3-3.58H44.43V5.67H45.6V14.3H44.43Zm63-1.36c-1,0-1.4-.62-1.4-1.16,0-.88.8-1.26,2.65-1.26h.75v.09A2.08,2.08,0,0,1,107.43,14.5Zm14.12-4a2,2,0,0,1,1.92-2.1,1.8,1.8,0,0,1,1.89,2v.09Zm-64.5,0c.1-1.32.81-2.1,1.92-2.1a1.8,1.8,0,0,1,1.89,2v.09ZM49.56,9.7H47.92v-4h1.6a2,2,0,0,1,2.18,2A1.93,1.93,0,0,1,49.56,9.7Zm32.33,6.16H86.1V14.3h-1V10.39a3.2,3.2,0,0,0-3.36-3.47,3.17,3.17,0,0,0-2.8,1.38h-.06L78.8,7.13H75.69V8.69h1.16V14.3h-1v1.56h4.2V14.3h-1V10.8a1.91,1.91,0,1,1,3.81,0v3.5h-1ZM51.33,31.12a6.08,6.08,0,0,1-2.48.45,4.38,4.38,0,0,1-4.63-4.75,4.66,4.66,0,0,1,4.89-4.92,5,5,0,0,1,2.23.42l-.29,1a4.44,4.44,0,0,0-1.89-.39c-2.2,0-3.66,1.4-3.66,3.86,0,2.3,1.32,3.77,3.6,3.77a4.81,4.81,0,0,0,2-.39ZM58.74,28a3.29,3.29,0,0,1-3.36,3.57,3.19,3.19,0,0,1-3.22-3.46,3.28,3.28,0,0,1,3.34-3.57A3.19,3.19,0,0,1,58.74,28Zm-5.34.07c0,1.47.84,2.58,2,2.58s2-1.1,2-2.61c0-1.14-.57-2.59-2-2.59S53.4,26.8,53.4,28.08Zm6.88-6.52H61.5v9.87H60.28Zm3.28,0h1.22v9.87H63.56Zm4,6.73a2.16,2.16,0,0,0,2.31,2.33,4.31,4.31,0,0,0,1.86-.35l.21.88a5.53,5.53,0,0,1-2.24.42,3.13,3.13,0,0,1-3.31-3.4c0-2,1.2-3.62,3.16-3.62,2.2,0,2.78,1.93,2.78,3.16a5.79,5.79,0,0,1,0,.58Zm3.59-.88a1.75,1.75,0,0,0-1.7-2,2,2,0,0,0-1.87,2ZM79.6,24.7c0,.48,0,1,0,1.85v3.9a3.9,3.9,0,0,1-1,3.08,3.57,3.57,0,0,1-2.45.8,4.4,4.4,0,0,1-2.24-.55l.31-.93a3.86,3.86,0,0,0,2,.52c1.25,0,2.17-.65,2.17-2.35v-.75h0a2.38,2.38,0,0,1-2.14,1.13,3,3,0,0,1-2.86-3.28c0-2.28,1.49-3.57,3-3.57a2.24,2.24,0,0,1,2.1,1.16h0l0-1Zm-1.26,2.65a1.84,1.84,0,0,0-.07-.55,1.76,1.76,0,0,0-1.71-1.3c-1.17,0-2,1-2,2.55,0,1.32.66,2.42,2,2.42a1.78,1.78,0,0,0,1.7-1.25,2.16,2.16,0,0,0,.1-.66Zm3.92.94a2.15,2.15,0,0,0,2.31,2.33,4.34,4.34,0,0,0,1.86-.35l.21.88a5.53,5.53,0,0,1-2.24.42,3.13,3.13,0,0,1-3.31-3.4c0-2,1.2-3.62,3.16-3.62,2.19,0,2.78,1.93,2.78,3.16a5.79,5.79,0,0,1,0,.58Zm3.59-.88a1.75,1.75,0,0,0-1.7-2,2,2,0,0,0-1.88,2Zm11.73.6a3.28,3.28,0,0,1-3.35,3.57A3.2,3.2,0,0,1,91,28.12a3.29,3.29,0,0,1,3.34-3.57A3.19,3.19,0,0,1,97.58,28Zm-5.34.07c0,1.47.85,2.58,2,2.58s2-1.1,2-2.61c0-1.14-.57-2.59-2-2.59S92.24,26.8,92.24,28.08Zm7,3.35v-5.8h-1V24.7h1v-.32A3.16,3.16,0,0,1,100,22a2.31,2.31,0,0,1,1.64-.63,2.77,2.77,0,0,1,1,.2l-.17.94a1.88,1.88,0,0,0-.78-.15c-1,0-1.3.92-1.3,1.95v.36h1.62v.93h-1.62v5.8ZM111,27h-3.64v3.38h4.06v1h-5.27V22.06h5.06v1h-3.85v3H111Zm2-.51c0-.7,0-1.27-.06-1.82H114l.07,1.11h0a2.46,2.46,0,0,1,2.22-1.26c.93,0,2.38.55,2.38,2.86v4h-1.23V27.55c0-1.09-.4-2-1.55-2a1.73,1.73,0,0,0-1.64,1.25,1.62,1.62,0,0,0-.09.57v4.05H113Zm13.51-1.82c0,.48,0,1,0,1.85v3.9a3.9,3.9,0,0,1-1,3.08,3.59,3.59,0,0,1-2.45.8,4.37,4.37,0,0,1-2.24-.55l.31-.93a3.86,3.86,0,0,0,2,.52c1.25,0,2.17-.65,2.17-2.35v-.75h0a2.38,2.38,0,0,1-2.14,1.13,3,3,0,0,1-2.86-3.28c0-2.28,1.49-3.57,3-3.57a2.24,2.24,0,0,1,2.1,1.16h0l0-1Zm-1.26,2.65a1.84,1.84,0,0,0-.07-.55,1.76,1.76,0,0,0-1.71-1.3c-1.17,0-2,1-2,2.55,0,1.32.66,2.42,2,2.42a1.78,1.78,0,0,0,1.7-1.25,2.16,2.16,0,0,0,.1-.66Zm4.52-4.54a.76.76,0,0,1-1.52,0A.75.75,0,0,1,129,22,.74.74,0,0,1,129.74,22.81Zm-1.37,8.62V24.7h1.23v6.73Zm3.26-4.91c0-.7,0-1.27-.06-1.82h1.09l.06,1.11h0A2.49,2.49,0,0,1,135,24.55c.93,0,2.37.55,2.37,2.86v4h-1.22V27.55c0-1.09-.4-2-1.56-2a1.75,1.75,0,0,0-1.64,1.25,1.91,1.91,0,0,0-.08.57v4.05h-1.22ZM140,28.29a2.16,2.16,0,0,0,2.31,2.33,4.28,4.28,0,0,0,1.86-.35l.21.88a5.49,5.49,0,0,1-2.24.42,3.12,3.12,0,0,1-3.3-3.4c0-2,1.19-3.62,3.15-3.62,2.2,0,2.78,1.93,2.78,3.16a3.8,3.8,0,0,1,0,.58Zm3.59-.88a1.75,1.75,0,0,0-1.7-2,2,2,0,0,0-1.87,2Zm3.38.88a2.15,2.15,0,0,0,2.31,2.33,4.34,4.34,0,0,0,1.86-.35l.21.88a5.53,5.53,0,0,1-2.24.42,3.13,3.13,0,0,1-3.31-3.4c0-2,1.2-3.62,3.16-3.62,2.19,0,2.78,1.93,2.78,3.16a5.79,5.79,0,0,1,0,.58Zm3.59-.88a1.75,1.75,0,0,0-1.7-2,2,2,0,0,0-1.88,2Zm2.69-.61c0-.79,0-1.48-.05-2.1h1.07l0,1.32h0a2,2,0,0,1,1.87-1.47,1.29,1.29,0,0,1,.35,0v1.15a1.76,1.76,0,0,0-.42,0,1.71,1.71,0,0,0-1.64,1.57,3.22,3.22,0,0,0-.06.57v3.59h-1.21Zm6-4a.76.76,0,0,1-1.52,0,.75.75,0,0,1,.77-.77A.74.74,0,0,1,159.24,22.81Zm-1.37,8.62V24.7h1.23v6.73Zm3.26-4.91c0-.7,0-1.27-.06-1.82h1.09l.07,1.11h0a2.49,2.49,0,0,1,2.23-1.26c.93,0,2.38.55,2.38,2.86v4h-1.23V27.55c0-1.09-.4-2-1.55-2a1.73,1.73,0,0,0-1.64,1.25,1.62,1.62,0,0,0-.09.57v4.05h-1.22Zm13.51-1.82c0,.48,0,1,0,1.85v3.9a3.9,3.9,0,0,1-1,3.08,3.59,3.59,0,0,1-2.45.8,4.35,4.35,0,0,1-2.24-.55l.31-.93a3.86,3.86,0,0,0,2,.52c1.25,0,2.17-.65,2.17-2.35v-.75h0a2.39,2.39,0,0,1-2.14,1.13,3,3,0,0,1-2.86-3.28c0-2.28,1.48-3.57,3-3.57a2.24,2.24,0,0,1,2.1,1.16h0l.06-1Zm-1.26,2.65a1.84,1.84,0,0,0-.07-.55,1.77,1.77,0,0,0-1.71-1.3c-1.17,0-2,1-2,2.55,0,1.32.67,2.42,2,2.42a1.8,1.8,0,0,0,1.7-1.25,2.16,2.16,0,0,0,.1-.66Z"/><rect class="cls-1" x="197.75" y="0.15" width="1.04" height="42.19"/><path class="cls-1" d="M211.32,4.88h7.32V6.71h-5.35v2.8h5.07v1.83h-5.07v3.09h5.63v1.84h-7.6Z"/><path class="cls-1" d="M220.86,4.88h2v9.55h4.7v1.84h-6.66Z"/><path class="cls-1" d="M229,4.88h7.32V6.71h-5.36v2.8H236v1.83h-5.08v3.09h5.64v1.84H229Z"/><path class="cls-1" d="M246.08,7.55a3.34,3.34,0,0,0-1.18-.9,3.1,3.1,0,0,0-1.15-.23,3.86,3.86,0,0,0-1.55.31A3.56,3.56,0,0,0,241,7.6a4.06,4.06,0,0,0-.78,1.3,4.58,4.58,0,0,0-.27,1.59,5.08,5.08,0,0,0,.27,1.69,4,4,0,0,0,.78,1.34,3.56,3.56,0,0,0,2.74,1.2,2.83,2.83,0,0,0,1.31-.33,3.56,3.56,0,0,0,1.17-1.05l1.63,1.19A4.51,4.51,0,0,1,246,16.08a5.56,5.56,0,0,1-2.29.48,6.15,6.15,0,0,1-2.35-.43,5.27,5.27,0,0,1-1.84-1.21,5.44,5.44,0,0,1-1.21-1.87,6.53,6.53,0,0,1-.44-2.43,6.85,6.85,0,0,1,.44-2.49,5.47,5.47,0,0,1,1.21-1.9A5.29,5.29,0,0,1,241.39,5a6.34,6.34,0,0,1,2.35-.42,5.12,5.12,0,0,1,2.08.41,4.77,4.77,0,0,1,1.79,1.39Z"/><path class="cls-1" d="M251.45,6.71h-3.39V4.88h8.74V6.71h-3.39v9.56h-2Z"/><path class="cls-1" d="M258.14,4.88H262a7.81,7.81,0,0,1,1.54.15,4,4,0,0,1,1.32.52,2.77,2.77,0,0,1,.92,1,3.28,3.28,0,0,1,.34,1.59,3.26,3.26,0,0,1-.66,2.08,2.82,2.82,0,0,1-1.9,1l2.94,5H264.1l-2.55-4.83h-1.44v4.83h-2Zm3.5,4.82a7.87,7.87,0,0,0,.84,0,2.35,2.35,0,0,0,.77-.19,1.25,1.25,0,0,0,.57-.47,1.47,1.47,0,0,0,.22-.87,1.49,1.49,0,0,0-.2-.81,1.39,1.39,0,0,0-.53-.46,2.38,2.38,0,0,0-.73-.2,6.78,6.78,0,0,0-.77,0h-1.7V9.7Z"/><path class="cls-1" d="M267.93,4.88h2V16.27h-2Z"/><path class="cls-1" d="M279.9,7.55a3.34,3.34,0,0,0-1.18-.9,3.1,3.1,0,0,0-1.15-.23,3.86,3.86,0,0,0-1.55.31,3.56,3.56,0,0,0-1.19.87,4.06,4.06,0,0,0-.78,1.3,4.58,4.58,0,0,0-.27,1.59,5.08,5.08,0,0,0,.27,1.69,4,4,0,0,0,.78,1.34,3.56,3.56,0,0,0,2.74,1.2,2.83,2.83,0,0,0,1.31-.33,3.56,3.56,0,0,0,1.17-1.05l1.63,1.19a4.51,4.51,0,0,1-1.83,1.55,5.56,5.56,0,0,1-2.29.48,6.15,6.15,0,0,1-2.35-.43,5.27,5.27,0,0,1-1.84-1.21,5.44,5.44,0,0,1-1.21-1.87,6.53,6.53,0,0,1-.44-2.43,6.85,6.85,0,0,1,.44-2.49,5.47,5.47,0,0,1,1.21-1.9A5.29,5.29,0,0,1,275.21,5a6.34,6.34,0,0,1,2.35-.42,5.12,5.12,0,0,1,2.08.41,4.77,4.77,0,0,1,1.79,1.39Z"/><path class="cls-1" d="M286.58,4.88h1.7L293,16.27h-2.25l-1-2.61H285l-1,2.61h-2.2Zm2.49,7-1.7-4.63-1.73,4.63Z"/><path class="cls-1" d="M294.27,4.88h2v9.55h4.7v1.84h-6.67Z"/><path class="cls-1" d="M307,4.88h7.32V6.71H309v2.8H314v1.83H309v3.09h5.63v1.84H307Z"/><path class="cls-1" d="M316.53,4.88h2.6l5.36,8.46h0V4.88h2V16.27H324l-5.47-8.74h0v8.74h-2Z"/><path class="cls-1" d="M338.77,15.43a9.36,9.36,0,0,1-4.58,1.13,6.22,6.22,0,0,1-2.35-.43A5.36,5.36,0,0,1,330,14.92a5.75,5.75,0,0,1-1.21-1.87,6.53,6.53,0,0,1-.43-2.43,6.85,6.85,0,0,1,.43-2.49A5.78,5.78,0,0,1,330,6.23,5.38,5.38,0,0,1,331.84,5a6.42,6.42,0,0,1,2.35-.42,8.67,8.67,0,0,1,2.38.31,4.84,4.84,0,0,1,2,1.12L337.1,7.53a3.74,3.74,0,0,0-1.29-.82,4.54,4.54,0,0,0-1.6-.29,3.86,3.86,0,0,0-1.55.31,3.6,3.6,0,0,0-1.2.87,4,4,0,0,0-.77,1.3,4.58,4.58,0,0,0-.27,1.59,5.08,5.08,0,0,0,.27,1.69,4,4,0,0,0,.77,1.34,3.62,3.62,0,0,0,1.2.88,3.55,3.55,0,0,0,1.55.32,6.36,6.36,0,0,0,1.41-.14,4.14,4.14,0,0,0,1.18-.45V11.44h-2.26V9.61h4.23Z"/><path class="cls-1" d="M341.05,4.88h2V16.27h-2Z"/><path class="cls-1" d="M345.43,4.88H348l5.35,8.46h0V4.88h2V16.27h-2.5l-5.46-8.74h0v8.74h-2Z"/><path class="cls-1" d="M357.85,4.88h7.32V6.71h-5.35v2.8h5.07v1.83h-5.07v3.09h5.64v1.84h-7.61Z"/><path class="cls-1" d="M367.39,4.88h7.32V6.71h-5.35v2.8h5.07v1.83h-5.07v3.09H375v1.84h-7.6Z"/><path class="cls-1" d="M376.93,4.88h3.84A7.63,7.63,0,0,1,382.3,5a3.88,3.88,0,0,1,1.32.52,2.69,2.69,0,0,1,.92,1,3.28,3.28,0,0,1,.35,1.59,3.21,3.21,0,0,1-.67,2.08,2.8,2.8,0,0,1-1.89,1l2.93,5h-2.37l-2.56-4.83h-1.44v4.83h-2Zm3.49,4.82a7.87,7.87,0,0,0,.84,0,2.41,2.41,0,0,0,.78-.19,1.37,1.37,0,0,0,.57-.47,1.55,1.55,0,0,0,.22-.87,1.41,1.41,0,0,0-.21-.81,1.32,1.32,0,0,0-.53-.46,2.4,2.4,0,0,0-.72-.2,7.11,7.11,0,0,0-.78,0h-1.7V9.7Z"/><path class="cls-1" d="M386.71,4.88h2V16.27h-2Z"/><path class="cls-1" d="M391.1,4.88h2.6l5.36,8.46h0V4.88h2V16.27h-2.49l-5.47-8.74h0v8.74h-2Z"/><path class="cls-1" d="M413.34,15.43a9.36,9.36,0,0,1-4.58,1.13,6.13,6.13,0,0,1-2.34-.43,5.31,5.31,0,0,1-1.85-1.21,5.75,5.75,0,0,1-1.21-1.87,6.53,6.53,0,0,1-.43-2.43,6.85,6.85,0,0,1,.43-2.49,5.78,5.78,0,0,1,1.21-1.9A5.33,5.33,0,0,1,406.42,5a6.32,6.32,0,0,1,2.34-.42,8.67,8.67,0,0,1,2.38.31,4.78,4.78,0,0,1,2,1.12l-1.45,1.51a3.74,3.74,0,0,0-1.29-.82,4.5,4.5,0,0,0-1.6-.29,3.86,3.86,0,0,0-1.55.31,3.6,3.6,0,0,0-1.2.87,4,4,0,0,0-.77,1.3,4.58,4.58,0,0,0-.27,1.59,5.08,5.08,0,0,0,.27,1.69,4,4,0,0,0,.77,1.34,3.62,3.62,0,0,0,1.2.88,3.55,3.55,0,0,0,1.55.32,6.36,6.36,0,0,0,1.41-.14,4.14,4.14,0,0,0,1.18-.45V11.44h-2.26V9.61h4.23Z"/><path class="cls-1" d="M214.9,23.73h1.7l4.76,11.4h-2.25l-1-2.61h-4.79l-1,2.61h-2.2Zm2.49,7.05-1.7-4.63L214,30.78Z"/><path class="cls-1" d="M222.59,23.73h2.61l5.35,8.47h0V23.73h2v11.4h-2.5l-5.46-8.74h0v8.74h-2Z"/><path class="cls-1" d="M235,23.73h4.36a6.43,6.43,0,0,1,2.1.35,5.08,5.08,0,0,1,1.8,1.05,5.24,5.24,0,0,1,1.25,1.78,6.3,6.3,0,0,1,.47,2.52,5.52,5.52,0,0,1-.54,2.53,5.24,5.24,0,0,1-1.39,1.77,5.86,5.86,0,0,1-1.89,1.05,6.43,6.43,0,0,1-2,.35H235Zm3.44,9.56a6.59,6.59,0,0,0,1.74-.22,4.19,4.19,0,0,0,1.43-.67,3.32,3.32,0,0,0,1-1.19,4.15,4.15,0,0,0,.35-1.78,4.48,4.48,0,0,0-.32-1.77,3,3,0,0,0-.86-1.2,3.62,3.62,0,0,0-1.31-.67,5.87,5.87,0,0,0-1.67-.22H237v7.72Z"/><path class="cls-1" d="M259.06,26.41a3.18,3.18,0,0,0-1.18-.91,3,3,0,0,0-1.14-.22,3.78,3.78,0,0,0-1.56.31,3.56,3.56,0,0,0-1.19.87,3.93,3.93,0,0,0-.77,1.3,4.58,4.58,0,0,0-.27,1.59,5.12,5.12,0,0,0,.27,1.69,4,4,0,0,0,.77,1.33,3.61,3.61,0,0,0,1.19.89,3.78,3.78,0,0,0,1.56.32,2.79,2.79,0,0,0,1.3-.33,3.68,3.68,0,0,0,1.18-1l1.62,1.19A4.45,4.45,0,0,1,259,34.93a5.62,5.62,0,0,1-2.3.49,6.42,6.42,0,0,1-2.35-.43,5.51,5.51,0,0,1-1.84-1.21,5.59,5.59,0,0,1-1.21-1.87,6.53,6.53,0,0,1-.44-2.43,6.85,6.85,0,0,1,.44-2.49,5.62,5.62,0,0,1,1.21-1.9,5.38,5.38,0,0,1,1.84-1.22,6.42,6.42,0,0,1,2.35-.43,5.34,5.34,0,0,1,2.09.41,4.88,4.88,0,0,1,1.78,1.4Z"/><path class="cls-1" d="M261.58,29.48A6.85,6.85,0,0,1,262,27a5.62,5.62,0,0,1,1.21-1.9,5.38,5.38,0,0,1,1.84-1.22,6.42,6.42,0,0,1,2.35-.43,6.5,6.5,0,0,1,2.38.4,5.1,5.1,0,0,1,1.85,1.2,5.5,5.5,0,0,1,1.22,1.9,6.71,6.71,0,0,1,.44,2.47,6.53,6.53,0,0,1-.44,2.43,5.65,5.65,0,0,1-1.22,1.89A5.76,5.76,0,0,1,269.79,35a6.72,6.72,0,0,1-2.38.46,6.42,6.42,0,0,1-2.35-.43,5.51,5.51,0,0,1-1.84-1.21A5.59,5.59,0,0,1,262,31.91,6.53,6.53,0,0,1,261.58,29.48Zm2.06-.13a5.12,5.12,0,0,0,.27,1.69,4,4,0,0,0,.77,1.33,3.55,3.55,0,0,0,1.2.89,3.7,3.7,0,0,0,1.55.32,3.78,3.78,0,0,0,1.56-.32,3.55,3.55,0,0,0,1.2-.89A4,4,0,0,0,271,31a4.87,4.87,0,0,0,.28-1.69,4.36,4.36,0,0,0-.28-1.59,3.93,3.93,0,0,0-.77-1.3,3.5,3.5,0,0,0-1.2-.87,3.78,3.78,0,0,0-1.56-.31,3.7,3.7,0,0,0-1.55.31,3.5,3.5,0,0,0-1.2.87,3.93,3.93,0,0,0-.77,1.3A4.58,4.58,0,0,0,263.64,29.35Z"/><path class="cls-1" d="M275.22,23.73h3l3,8,3-8h3v11.4h-1.87V25.66h0l-3.36,9.47h-1.37l-3.36-9.47h0v9.47h-1.87Z"/><path class="cls-1" d="M289.62,23.73h3.72a7,7,0,0,1,1.53.17,3.65,3.65,0,0,1,1.31.53,2.76,2.76,0,0,1,.89,1,3.27,3.27,0,0,1,.34,1.58,3.63,3.63,0,0,1-.36,1.74,2.58,2.58,0,0,1-1,1,3.8,3.8,0,0,1-1.41.49,10.13,10.13,0,0,1-1.68.13h-1.4v4.72h-2Zm3.15,4.94.88,0a2.46,2.46,0,0,0,.83-.19,1.33,1.33,0,0,0,.87-1.39,1.42,1.42,0,0,0-.22-.84,1.37,1.37,0,0,0-.56-.48,2.09,2.09,0,0,0-.77-.22,7.65,7.65,0,0,0-.81-.05h-1.4v3.2Z"/><path class="cls-1" d="M308,30.94a4.78,4.78,0,0,1-.35,1.86,4.33,4.33,0,0,1-.93,1.41,4.28,4.28,0,0,1-1.41.89,5,5,0,0,1-3.52,0,4.23,4.23,0,0,1-1.42-.89,4,4,0,0,1-.93-1.41,4.78,4.78,0,0,1-.34-1.86V23.73h2v7.15a3.51,3.51,0,0,0,.12.88,2.55,2.55,0,0,0,.42.84,2.18,2.18,0,0,0,.76.64,3,3,0,0,0,2.36,0,2.28,2.28,0,0,0,.76-.64,2.76,2.76,0,0,0,.42-.84,3.51,3.51,0,0,0,.12-.88V23.73h2Z"/><path class="cls-1" d="M312.69,25.57H309.3V23.73H318v1.84h-3.38v9.56h-2Z"/><path class="cls-1" d="M319.38,23.73h7.32v1.84h-5.35v2.8h5.07V30.2h-5.07v3.09H327v1.84h-7.61Z"/><path class="cls-1" d="M328.92,23.73h3.84a7.81,7.81,0,0,1,1.54.16,3.84,3.84,0,0,1,1.32.52,2.77,2.77,0,0,1,.92,1,3.72,3.72,0,0,1-.32,3.67,2.89,2.89,0,0,1-1.9,1l2.94,5h-2.38l-2.56-4.83h-1.43v4.83h-2Zm3.5,4.83a7.87,7.87,0,0,0,.84,0,2.64,2.64,0,0,0,.77-.19,1.25,1.25,0,0,0,.57-.47,1.49,1.49,0,0,0,.22-.88,1.46,1.46,0,0,0-.2-.8,1.37,1.37,0,0,0-.53-.46,2.38,2.38,0,0,0-.73-.2,6.78,6.78,0,0,0-.77-.05h-1.7v3.09Z"/><path class="cls-1" d="M348.79,26.18a1.81,1.81,0,0,0-.84-.68,2.74,2.74,0,0,0-1.1-.22,2.84,2.84,0,0,0-.66.08,1.69,1.69,0,0,0-.58.26,1.22,1.22,0,0,0-.41.46,1.27,1.27,0,0,0-.16.66,1.07,1.07,0,0,0,.39.89,3.84,3.84,0,0,0,1,.53c.38.15.81.29,1.26.43a5.43,5.43,0,0,1,1.27.58,3.48,3.48,0,0,1,1,1,3,3,0,0,1,.39,1.63,3.66,3.66,0,0,1-.33,1.6,3.2,3.2,0,0,1-.88,1.13,3.63,3.63,0,0,1-1.29.68,5.28,5.28,0,0,1-1.55.23,5.59,5.59,0,0,1-2-.36,3.8,3.8,0,0,1-1.64-1.19l1.49-1.48a2.41,2.41,0,0,0,.94.88,2.56,2.56,0,0,0,1.24.31,2.35,2.35,0,0,0,.69-.1,2.18,2.18,0,0,0,.62-.28,1.44,1.44,0,0,0,.45-.5,1.25,1.25,0,0,0,.18-.68,1.19,1.19,0,0,0-.39-1,3.52,3.52,0,0,0-1-.58c-.39-.15-.81-.3-1.27-.44a5.34,5.34,0,0,1-1.26-.57,3,3,0,0,1-1-1,2.93,2.93,0,0,1-.39-1.61,3.2,3.2,0,0,1,.35-1.53,3.29,3.29,0,0,1,.92-1.07,4.1,4.1,0,0,1,1.31-.64,5.34,5.34,0,0,1,3.19.07,3.75,3.75,0,0,1,1.47.9Z"/><path class="cls-1" d="M359.92,26.41a3.26,3.26,0,0,0-1.18-.91,3.13,3.13,0,0,0-1.15-.22,3.7,3.7,0,0,0-1.55.31,3.5,3.5,0,0,0-1.2.87,3.93,3.93,0,0,0-.77,1.3,4.58,4.58,0,0,0-.27,1.59,5.12,5.12,0,0,0,.27,1.69,4,4,0,0,0,.77,1.33,3.55,3.55,0,0,0,1.2.89,3.7,3.7,0,0,0,1.55.32,2.76,2.76,0,0,0,1.3-.33,3.58,3.58,0,0,0,1.18-1l1.62,1.19a4.39,4.39,0,0,1-1.82,1.54,5.62,5.62,0,0,1-2.3.49,6.42,6.42,0,0,1-2.35-.43,5.51,5.51,0,0,1-1.84-1.21,5.75,5.75,0,0,1-1.21-1.87,6.53,6.53,0,0,1-.43-2.43,6.85,6.85,0,0,1,.43-2.49,5.78,5.78,0,0,1,1.21-1.9,5.38,5.38,0,0,1,1.84-1.22,6.42,6.42,0,0,1,2.35-.43,5.34,5.34,0,0,1,2.09.41,4.88,4.88,0,0,1,1.78,1.4Z"/><path class="cls-1" d="M363,23.73h2v11.4h-2Z"/><path class="cls-1" d="M367.36,23.73h7.32v1.84h-5.35v2.8h5.07V30.2h-5.07v3.09H375v1.84h-7.6Z"/><path class="cls-1" d="M376.9,23.73h2.6l5.35,8.47h0V23.73h2v11.4h-2.49l-5.47-8.74h0v8.74h-2Z"/><path class="cls-1" d="M396.9,26.41a3.18,3.18,0,0,0-1.18-.91,3.08,3.08,0,0,0-1.14-.22,3.78,3.78,0,0,0-1.56.31,3.56,3.56,0,0,0-1.19.87,3.93,3.93,0,0,0-.77,1.3,4.58,4.58,0,0,0-.27,1.59,5.12,5.12,0,0,0,.27,1.69,4,4,0,0,0,.77,1.33,3.61,3.61,0,0,0,1.19.89,3.78,3.78,0,0,0,1.56.32,2.79,2.79,0,0,0,1.3-.33,3.68,3.68,0,0,0,1.18-1l1.62,1.19a4.45,4.45,0,0,1-1.82,1.54,5.62,5.62,0,0,1-2.3.49,6.42,6.42,0,0,1-2.35-.43,5.51,5.51,0,0,1-1.84-1.21,5.59,5.59,0,0,1-1.21-1.87,6.53,6.53,0,0,1-.44-2.43,6.85,6.85,0,0,1,.44-2.49,5.62,5.62,0,0,1,1.21-1.9,5.38,5.38,0,0,1,1.84-1.22,6.42,6.42,0,0,1,2.35-.43,5.34,5.34,0,0,1,2.09.41,4.88,4.88,0,0,1,1.78,1.4Z"/><path class="cls-1" d="M400,23.73h7.32v1.84H402v2.8h5.08V30.2H402v3.09h5.64v1.84H400Z"/></g></g></svg>