<svg xmlns="http://www.w3.org/2000/svg" viewBox="0 0 413.34 42.19"><defs><style>.cls-1{fill:#1f417c;}.cls-2{fill:#fff;}.cls-3{fill:#96bee5;}</style></defs><title>EECS-duo-RGB-colors</title><g id="Layer_2" data-name="Layer 2"><g id="Layer_1-2" data-name="Layer 1"><rect class="cls-1" x="197.73" width="1.04" height="42.19"/><path class="cls-1" d="M211.31,4.73h7.32V6.56h-5.35v2.8h5.07V11.2h-5.07v3.09h5.63v1.83h-7.6Z"/><path class="cls-1" d="M220.85,4.73h2v9.56h4.7v1.83h-6.66Z"/><path class="cls-1" d="M229,4.73h7.32V6.56h-5.36v2.8H236V11.2h-5.07v3.09h5.64v1.83H229Z"/><path class="cls-1" d="M246.07,7.4a3.34,3.34,0,0,0-1.18-.9,3.1,3.1,0,0,0-1.15-.23,3.7,3.7,0,0,0-1.55.32,3.56,3.56,0,0,0-1.19.87,3.84,3.84,0,0,0-.78,1.29,4.62,4.62,0,0,0-.27,1.59,5,5,0,0,0,.27,1.69,3.88,3.88,0,0,0,.78,1.34,3.62,3.62,0,0,0,2.74,1.21,2.76,2.76,0,0,0,1.3-.33,3.53,3.53,0,0,0,1.18-1.06l1.63,1.19A4.44,4.44,0,0,1,246,15.93a5.56,5.56,0,0,1-2.29.48,6.15,6.15,0,0,1-2.35-.43,5.15,5.15,0,0,1-1.84-1.2,5.48,5.48,0,0,1-1.21-1.88,6.33,6.33,0,0,1-.44-2.43A6.56,6.56,0,0,1,238.33,8a5.52,5.52,0,0,1,1.21-1.91,5,5,0,0,1,1.84-1.21,6.15,6.15,0,0,1,2.35-.43,5.29,5.29,0,0,1,2.08.41,4.87,4.87,0,0,1,1.79,1.39Z"/><path class="cls-1" d="M251.44,6.56h-3.39V4.73h8.74V6.56H253.4v9.56h-2Z"/><path class="cls-1" d="M258.13,4.73H262a7.81,7.81,0,0,1,1.54.15,4,4,0,0,1,1.32.52,2.77,2.77,0,0,1,.92,1,3.3,3.3,0,0,1,.34,1.6,3.25,3.25,0,0,1-.66,2.07,2.78,2.78,0,0,1-1.9,1l2.94,5h-2.38l-2.55-4.83H260.1v4.83h-2Zm3.5,4.83c.28,0,.56,0,.84,0a2.64,2.64,0,0,0,.77-.2,1.3,1.3,0,0,0,.57-.46A1.51,1.51,0,0,0,264,8a1.52,1.52,0,0,0-.2-.81,1.28,1.28,0,0,0-.53-.45,2.39,2.39,0,0,0-.73-.21,6.74,6.74,0,0,0-.77,0h-1.7V9.56Z"/><path class="cls-1" d="M267.92,4.73h2V16.12h-2Z"/><path class="cls-1" d="M279.89,7.4a3.34,3.34,0,0,0-1.18-.9,3.1,3.1,0,0,0-1.15-.23,3.7,3.7,0,0,0-1.55.32,3.56,3.56,0,0,0-1.19.87A4,4,0,0,0,274,8.75a4.62,4.62,0,0,0-.27,1.59A5,5,0,0,0,274,12a4,4,0,0,0,.78,1.34,3.62,3.62,0,0,0,2.74,1.21,2.8,2.8,0,0,0,1.31-.33,3.72,3.72,0,0,0,1.18-1.06l1.62,1.19a4.44,4.44,0,0,1-1.83,1.55,5.56,5.56,0,0,1-2.29.48A6.18,6.18,0,0,1,275.2,16a5.24,5.24,0,0,1-1.84-1.2,5.48,5.48,0,0,1-1.21-1.88,6.53,6.53,0,0,1-.44-2.43A6.76,6.76,0,0,1,272.15,8a5.52,5.52,0,0,1,1.21-1.91,5.13,5.13,0,0,1,1.84-1.21,6.18,6.18,0,0,1,2.35-.43,5.29,5.29,0,0,1,2.08.41,4.87,4.87,0,0,1,1.79,1.39Z"/><path class="cls-1" d="M286.57,4.73h1.7L293,16.12h-2.25l-1-2.61H285l-1,2.61h-2.2Zm2.5,7-1.7-4.64-1.74,4.64Z"/><path class="cls-1" d="M294.26,4.73h2v9.56h4.7v1.83h-6.67Z"/><path class="cls-1" d="M307,4.73h7.31V6.56H309v2.8H314V11.2H309v3.09h5.64v1.83H307Z"/><path class="cls-1" d="M316.52,4.73h2.61l5.35,8.46h0V4.73h2V16.12H324l-5.46-8.74h0v8.74h-2Z"/><path class="cls-1" d="M338.76,15.28a9.33,9.33,0,0,1-4.57,1.13,6.18,6.18,0,0,1-2.35-.43,5.24,5.24,0,0,1-1.84-1.2,5.48,5.48,0,0,1-1.21-1.88,6.53,6.53,0,0,1-.44-2.43A6.76,6.76,0,0,1,328.79,8,5.52,5.52,0,0,1,330,6.08a5.13,5.13,0,0,1,1.84-1.21,6.18,6.18,0,0,1,2.35-.43,8.65,8.65,0,0,1,2.37.31,4.78,4.78,0,0,1,2,1.12l-1.45,1.51a3.7,3.7,0,0,0-1.29-.82,4.44,4.44,0,0,0-1.59-.29,3.72,3.72,0,0,0-1.56.32,3.56,3.56,0,0,0-1.19.87,3.82,3.82,0,0,0-.77,1.29,4.4,4.4,0,0,0-.28,1.59,4.79,4.79,0,0,0,.28,1.69,3.86,3.86,0,0,0,.77,1.34,3.62,3.62,0,0,0,2.75,1.21,6.48,6.48,0,0,0,1.41-.15A4.26,4.26,0,0,0,336.8,14V11.29h-2.27V9.46h4.23Z"/><path class="cls-1" d="M341,4.73h2V16.12h-2Z"/><path class="cls-1" d="M345.43,4.73H348l5.36,8.46h0V4.73h2V16.12h-2.49l-5.47-8.74h0v8.74h-2Z"/><path class="cls-1" d="M357.85,4.73h7.32V6.56h-5.35v2.8h5.07V11.2h-5.07v3.09h5.63v1.83h-7.6Z"/><path class="cls-1" d="M367.39,4.73h7.32V6.56h-5.36v2.8h5.08V11.2h-5.08v3.09H375v1.83h-7.6Z"/><path class="cls-1" d="M376.92,4.73h3.84a7.81,7.81,0,0,1,1.54.15,4,4,0,0,1,1.32.52,2.77,2.77,0,0,1,.92,1,3.3,3.3,0,0,1,.34,1.6,3.25,3.25,0,0,1-.66,2.07,2.78,2.78,0,0,1-1.9,1l2.94,5h-2.38l-2.55-4.83h-1.44v4.83h-2Zm3.5,4.83c.28,0,.56,0,.84,0a2.64,2.64,0,0,0,.77-.2,1.3,1.3,0,0,0,.57-.46,1.51,1.51,0,0,0,.22-.88,1.52,1.52,0,0,0-.2-.81,1.28,1.28,0,0,0-.53-.45,2.39,2.39,0,0,0-.73-.21,6.74,6.74,0,0,0-.77,0h-1.7V9.56Z"/><path class="cls-1" d="M386.71,4.73h2V16.12h-2Z"/><path class="cls-1" d="M391.09,4.73h2.61l5.35,8.46h0V4.73h2V16.12h-2.5l-5.46-8.74h0v8.74h-2Z"/><path class="cls-1" d="M413.34,15.28a9.36,9.36,0,0,1-4.58,1.13,6.22,6.22,0,0,1-2.35-.43,5.33,5.33,0,0,1-1.84-1.2,5.63,5.63,0,0,1-1.21-1.88,6.53,6.53,0,0,1-.44-2.43A6.76,6.76,0,0,1,403.36,8a5.67,5.67,0,0,1,1.21-1.91,5.22,5.22,0,0,1,1.84-1.21,6.22,6.22,0,0,1,2.35-.43,8.54,8.54,0,0,1,2.37.31,4.88,4.88,0,0,1,2,1.12l-1.45,1.51a3.9,3.9,0,0,0-1.29-.82,4.54,4.54,0,0,0-1.6-.29,3.78,3.78,0,0,0-1.56.32,3.56,3.56,0,0,0-1.19.87,4,4,0,0,0-.77,1.29,4.62,4.62,0,0,0-.27,1.59,5,5,0,0,0,.27,1.69,4,4,0,0,0,.77,1.34,3.58,3.58,0,0,0,1.19.88,3.63,3.63,0,0,0,1.56.33,6.35,6.35,0,0,0,1.41-.15,4.14,4.14,0,0,0,1.18-.45V11.29h-2.26V9.46h4.23Z"/><path class="cls-1" d="M214.88,23.59h1.7L221.35,35H219.1l-1-2.61h-4.79l-1,2.61h-2.2Zm2.5,7.05L215.68,26,214,30.64Z"/><path class="cls-1" d="M222.58,23.59h2.6l5.36,8.46h0V23.59h2V35H230l-5.46-8.74h0V35h-2Z"/><path class="cls-1" d="M235,23.59h4.36a6.46,6.46,0,0,1,2.1.34,5.1,5.1,0,0,1,1.8,1.06,5.18,5.18,0,0,1,1.25,1.78,6.24,6.24,0,0,1,.47,2.51,5.36,5.36,0,0,1-1.93,4.31,6,6,0,0,1-1.89,1,6.43,6.43,0,0,1-2,.35H235Zm3.44,9.56a7,7,0,0,0,1.74-.22,4.07,4.07,0,0,0,1.42-.68,3.05,3.05,0,0,0,1-1.19,4,4,0,0,0,.35-1.78,4.55,4.55,0,0,0-.31-1.77,3,3,0,0,0-.86-1.19,3.48,3.48,0,0,0-1.31-.68,5.87,5.87,0,0,0-1.67-.22H237v7.73Z"/><path class="cls-1" d="M259.05,26.26a3.25,3.25,0,0,0-1.18-.9,3.09,3.09,0,0,0-1.14-.23,3.75,3.75,0,0,0-1.56.32,3.56,3.56,0,0,0-1.19.87,4,4,0,0,0-.77,1.29,4.62,4.62,0,0,0-.28,1.59,5.08,5.08,0,0,0,.28,1.69,4,4,0,0,0,.77,1.34,3.62,3.62,0,0,0,2.75,1.21,2.79,2.79,0,0,0,1.3-.33,3.72,3.72,0,0,0,1.18-1.06l1.62,1.19A4.55,4.55,0,0,1,259,34.79a5.61,5.61,0,0,1-2.3.48,6.22,6.22,0,0,1-2.35-.43,5.33,5.33,0,0,1-1.84-1.2,5.63,5.63,0,0,1-1.21-1.88,6.53,6.53,0,0,1-.44-2.43,6.76,6.76,0,0,1,.44-2.48,5.67,5.67,0,0,1,1.21-1.91,5.38,5.38,0,0,1,1.84-1.22,6.42,6.42,0,0,1,2.35-.42,5.25,5.25,0,0,1,2.08.41,4.79,4.79,0,0,1,1.79,1.39Z"/><path class="cls-1" d="M261.57,29.33a6.76,6.76,0,0,1,.43-2.48,5.67,5.67,0,0,1,1.21-1.91,5.38,5.38,0,0,1,1.84-1.22,6.42,6.42,0,0,1,2.35-.42,6.5,6.5,0,0,1,2.38.39,5.38,5.38,0,0,1,1.85,1.2,5.59,5.59,0,0,1,1.22,1.9,6.76,6.76,0,0,1,.44,2.48,6.53,6.53,0,0,1-.44,2.43,5.6,5.6,0,0,1-1.22,1.88,5.45,5.45,0,0,1-1.85,1.23,6.31,6.31,0,0,1-2.38.46,6.22,6.22,0,0,1-2.35-.43,5.33,5.33,0,0,1-1.84-1.2A5.63,5.63,0,0,1,262,31.76,6.53,6.53,0,0,1,261.57,29.33Zm2.06-.13a5.08,5.08,0,0,0,.27,1.69,4,4,0,0,0,.77,1.34,3.66,3.66,0,0,0,2.75,1.21,3.63,3.63,0,0,0,1.56-.33,3.52,3.52,0,0,0,1.2-.88,4,4,0,0,0,.77-1.34,4.83,4.83,0,0,0,.28-1.69,4.4,4.4,0,0,0-.28-1.59,4,4,0,0,0-.77-1.29,3.5,3.5,0,0,0-1.2-.87,3.78,3.78,0,0,0-1.56-.32,3.7,3.7,0,0,0-1.55.32,3.5,3.5,0,0,0-1.2.87,4,4,0,0,0-.77,1.29A4.62,4.62,0,0,0,263.63,29.2Z"/><path class="cls-1" d="M275.21,23.59h3l2.95,8,3-8h3V35h-1.87V25.52h0L281.84,35h-1.37l-3.36-9.46h0V35h-1.87Z"/><path class="cls-1" d="M289.61,23.59h3.72a7.12,7.12,0,0,1,1.54.16,3.88,3.88,0,0,1,1.3.54,2.84,2.84,0,0,1,.9,1,3.44,3.44,0,0,1,.33,1.59,3.59,3.59,0,0,1-.36,1.73,2.67,2.67,0,0,1-1,1,4,4,0,0,1-1.41.49,11.22,11.22,0,0,1-1.68.13h-1.4V35h-2Zm3.16,4.94.87,0a2.73,2.73,0,0,0,.83-.2,1.44,1.44,0,0,0,.63-.48,1.48,1.48,0,0,0,.24-.9,1.43,1.43,0,0,0-.22-.85,1.37,1.37,0,0,0-.56-.48,2.58,2.58,0,0,0-.76-.22,7.88,7.88,0,0,0-.82,0h-1.4v3.2Z"/><path class="cls-1" d="M308,30.8a5,5,0,0,1-.34,1.85,4.15,4.15,0,0,1-.94,1.41,4.06,4.06,0,0,1-1.41.9,5.15,5.15,0,0,1-3.52,0,4.19,4.19,0,0,1-1.42-.9,3.86,3.86,0,0,1-.93-1.41,4.76,4.76,0,0,1-.34-1.85V23.59h2v7.14a3.51,3.51,0,0,0,.12.88,2.65,2.65,0,0,0,.42.84,2.18,2.18,0,0,0,.76.64,2.91,2.91,0,0,0,2.36,0,2.18,2.18,0,0,0,.76-.64,2.46,2.46,0,0,0,.42-.84,3.51,3.51,0,0,0,.12-.88V23.59h2Z"/><path class="cls-1" d="M312.68,25.42h-3.39V23.59H318v1.83h-3.38V35h-2Z"/><path class="cls-1" d="M319.38,23.59h7.32v1.83h-5.36v2.8h5.08v1.84h-5.08v3.09H327V35h-7.6Z"/><path class="cls-1" d="M328.91,23.59h3.84a7.81,7.81,0,0,1,1.54.15,4,4,0,0,1,1.32.52,2.77,2.77,0,0,1,.92,1,3.72,3.72,0,0,1-.32,3.67,2.78,2.78,0,0,1-1.9,1l2.94,5h-2.38l-2.55-4.83h-1.44V35h-2Zm3.5,4.82a7.87,7.87,0,0,0,.84,0,2.35,2.35,0,0,0,.77-.19,1.3,1.3,0,0,0,.57-.46,1.51,1.51,0,0,0,.22-.88,1.43,1.43,0,0,0-.2-.81,1.28,1.28,0,0,0-.53-.45,2.39,2.39,0,0,0-.73-.21,6.74,6.74,0,0,0-.77,0h-1.7v3.08Z"/><path class="cls-1" d="M348.78,26a1.83,1.83,0,0,0-.83-.68,3,3,0,0,0-1.1-.22,3,3,0,0,0-.67.08,1.85,1.85,0,0,0-.57.26,1.33,1.33,0,0,0-.42.46,1.41,1.41,0,0,0-.15.67,1.05,1.05,0,0,0,.39.88,3.64,3.64,0,0,0,1,.53c.39.15.81.3,1.27.44a4.83,4.83,0,0,1,1.26.58,3,3,0,0,1,1,1,3,3,0,0,1,.39,1.62,3.63,3.63,0,0,1-.33,1.6,3.23,3.23,0,0,1-.88,1.14,3.77,3.77,0,0,1-1.29.67,5.22,5.22,0,0,1-1.54.23,5.73,5.73,0,0,1-2-.35,3.84,3.84,0,0,1-1.64-1.19l1.48-1.49a2.48,2.48,0,0,0,.94.88,2.6,2.6,0,0,0,1.24.32,2.74,2.74,0,0,0,.69-.1,2.26,2.26,0,0,0,.63-.29,1.63,1.63,0,0,0,.45-.49,1.41,1.41,0,0,0,.17-.69,1.2,1.2,0,0,0-.39-1,3.15,3.15,0,0,0-1-.57,10.85,10.85,0,0,0-1.26-.44,5.06,5.06,0,0,1-1.27-.58,3.14,3.14,0,0,1-1-1,2.94,2.94,0,0,1-.39-1.62,3.09,3.09,0,0,1,.35-1.53,3.28,3.28,0,0,1,.92-1.07,4,4,0,0,1,1.3-.63,5.43,5.43,0,0,1,1.5-.21,5.34,5.34,0,0,1,1.69.27,3.86,3.86,0,0,1,1.48.9Z"/><path class="cls-1" d="M359.91,26.26a3.34,3.34,0,0,0-1.18-.9,3.1,3.1,0,0,0-1.15-.23,3.7,3.7,0,0,0-1.55.32,3.56,3.56,0,0,0-1.19.87,3.82,3.82,0,0,0-.77,1.29,4.4,4.4,0,0,0-.28,1.59,4.83,4.83,0,0,0,.28,1.69,3.86,3.86,0,0,0,.77,1.34,3.62,3.62,0,0,0,2.74,1.21,2.8,2.8,0,0,0,1.31-.33,3.72,3.72,0,0,0,1.18-1.06l1.62,1.19a4.51,4.51,0,0,1-1.83,1.55,5.53,5.53,0,0,1-2.29.48,6.18,6.18,0,0,1-2.35-.43,5.24,5.24,0,0,1-1.84-1.2,5.48,5.48,0,0,1-1.21-1.88,6.53,6.53,0,0,1-.44-2.43,6.76,6.76,0,0,1,.44-2.48,5.52,5.52,0,0,1,1.21-1.91,5.29,5.29,0,0,1,1.84-1.22,6.38,6.38,0,0,1,2.35-.42,5.29,5.29,0,0,1,2.08.41,4.87,4.87,0,0,1,1.79,1.39Z"/><path class="cls-1" d="M363,23.59h2V35h-2Z"/><path class="cls-1" d="M367.36,23.59h7.31v1.83h-5.35v2.8h5.07v1.84h-5.07v3.09H375V35h-7.6Z"/><path class="cls-1" d="M376.89,23.59h2.61l5.35,8.46h0V23.59h2V35h-2.5l-5.46-8.74h0V35h-2Z"/><path class="cls-1" d="M396.9,26.26a3.25,3.25,0,0,0-1.18-.9,3.09,3.09,0,0,0-1.14-.23,3.72,3.72,0,0,0-1.56.32,3.56,3.56,0,0,0-1.19.87,4,4,0,0,0-.77,1.29,4.4,4.4,0,0,0-.28,1.59,4.83,4.83,0,0,0,.28,1.69,4,4,0,0,0,.77,1.34,3.62,3.62,0,0,0,2.75,1.21,2.79,2.79,0,0,0,1.3-.33,3.72,3.72,0,0,0,1.18-1.06l1.62,1.19a4.51,4.51,0,0,1-1.83,1.55,5.53,5.53,0,0,1-2.29.48,6.18,6.18,0,0,1-2.35-.43,5.24,5.24,0,0,1-1.84-1.2,5.48,5.48,0,0,1-1.21-1.88,6.53,6.53,0,0,1-.44-2.43,6.76,6.76,0,0,1,.44-2.48,5.52,5.52,0,0,1,1.21-1.91,5.29,5.29,0,0,1,1.84-1.22,6.38,6.38,0,0,1,2.35-.42,5.29,5.29,0,0,1,2.08.41,4.87,4.87,0,0,1,1.79,1.39Z"/><path class="cls-1" d="M400,23.59h7.32v1.83H402v2.8h5.08v1.84H402v3.09h5.64V35H400Z"/><path class="cls-2" d="M19.12,42.19C10.66,37.16,0,29.85,0,17V3.32A51.86,51.86,0,0,1,19.12,0,52.69,52.69,0,0,1,38.24,3.32V17C38.24,30,27.16,37.46,19.12,42.19Z"/><path class="cls-1" d="M24.87,24.54c0-.29.24-.73.24-1.14s-.59-.62-1-.69c-1-.13-1.27-.09-1.27-.3s.12-.3.3-.55a1.92,1.92,0,0,1,1.19-.55,10.3,10.3,0,0,1,1.48-.12,8.5,8.5,0,0,1,1.43.14c.58.11.68.35.68.63v.27c0,.28-.23.42-.64.51l-.31.06c-.3.06-.67.12-.8.5-.28.8-.76,1.43-1.12,1.41C24.94,24.71,24.87,24.66,24.87,24.54Zm.84-12.94s-.15-.07-.15-.19.1-.29.31-.57c.48-.64,1.13-1.42,1.37-1.42s.2.08.34.35a1.57,1.57,0,0,1,.16.7A3.56,3.56,0,0,1,27,12.6,6.27,6.27,0,0,0,25.71,11.6Zm-14,1.59c.21,0,.38-.14.7-.5.73-.81,1.43-.91,1.43-1.26a1,1,0,0,0-.2-.46A31.36,31.36,0,0,1,12,8.23c-.16-.32-.38-.54-.55-.54s-.55.32-.71.58a2.56,2.56,0,0,0-.46,1.19,8.45,8.45,0,0,0,.38,2.34C11,12.54,11.34,13.19,11.67,13.19ZM20.4,16a1.46,1.46,0,0,0-1.55-1.24,1.89,1.89,0,0,0-1.71,1.18A1.78,1.78,0,0,0,18.39,17c.11,0,.22,0,.22.13s-.14.2-.44.2a2.14,2.14,0,0,1-1.76-.71,7.1,7.1,0,0,1-.88.14c-.29,0-.42-.18-.42-.44a1.28,1.28,0,0,1,.14-.56c.06-.11.12-.22.16-.31A2.79,2.79,0,0,1,16.65,14l.49-.29a2.48,2.48,0,0,1,1.44-.36H19a1.91,1.91,0,0,1,1.36.45c.63.53,1,.82,1,1.21A1.71,1.71,0,0,1,21,16.27a1.53,1.53,0,0,1-1,.65c-.08,0-.1,0-.1-.09s.06-.09.13-.14A1.78,1.78,0,0,0,20.4,16Zm4.2,13.4a8,8,0,0,1-1.92.12c-2.17,0-2.54-.54-2.54-1,0-.7,3.11-1.2,4.34-1.2s1.69.38,1.69.66A2,2,0,0,1,24.6,29.39ZM12.08,35.74a69.3,69.3,0,0,0,7,4.73h0c0-2.12-.05-3.38,1.39-4.88l1.73-1.79c.41-.43.74-.74.93-.74s.2.07.2.25A4.25,4.25,0,0,0,23.89,35a2.17,2.17,0,0,0,1.58,1.23c6.17-4.64,11.32-10.71,11.32-19.35V4.33A50.71,50.71,0,0,0,19.12,1.42,50.71,50.71,0,0,0,1.45,4.33V16.92a20.09,20.09,0,0,0,2.63,10c.17-1.75,1.35-2.58,1.35-4.3,0-1.2-.34-1.95-.34-3,0-1.81,2.45-5.55,3.72-7.07,0,0,.12-.15.22-.15a.26.26,0,0,1,.22.15c.13.2.19.3.32.3a.18.18,0,0,0,.2-.2,10.37,10.37,0,0,1-.37-2.9,2.88,2.88,0,0,1,1.23-2.63,2,2,0,0,1,1.15-.64c.53,0,.79.31,1.12.65a20.65,20.65,0,0,1,1.45,1.72A.19.19,0,0,0,14.5,9c.25,0,.47-.08,1.58-.08a26.62,26.62,0,0,1,6.64.83,10.79,10.79,0,0,0,1.18.45c.11,0,.12-.07.12-.12s-.21-.27-.21-.41a.25.25,0,0,1,.14-.2A7.2,7.2,0,0,1,27,8.34c.53,0,.8.46,1,.92a3,3,0,0,1,.36,1.32,4.06,4.06,0,0,1-.85,2.52c.18.18.44.46.59.65A2.07,2.07,0,0,1,28.76,15a4.74,4.74,0,0,1-.14.74c0,.11-.12.33-.31.32s-.22-.19-.22-.35v-.12a1.9,1.9,0,0,0-1.6-1.85h-.15a1.59,1.59,0,0,0-1.25.51,1.17,1.17,0,0,0-.39.87,2.34,2.34,0,0,0,.35.87c.12.24.42.79.58,1.08a.59.59,0,0,0,.53.34c.5,0,.94-.07.94-.22s0-.08-.09-.08h-.16c-.66,0-1-.84-1.34-1.6a1.42,1.42,0,0,1,1-.49,1,1,0,0,1,1.09,1,1.58,1.58,0,0,1-.14.63.21.21,0,0,0,0,.11c0,.09.11.11.29.15L28,17a.74.74,0,0,1,.48.45l.22.6A4,4,0,0,1,29,19.37a3.88,3.88,0,0,1-.2,1.33,8.79,8.79,0,0,0-.33,1.44,2,2,0,0,1,.11.24,2.92,2.92,0,0,1,.26,1.15v.38a3,3,0,0,1-.62,1.77l-.82,1.09a.69.69,0,0,1-.52.27,1.37,1.37,0,0,1-.32-.06l-.51-.13a1,1,0,0,1-.74-.78c0-.06-.09-.23-.11-.28-.11-.27-.17-.44-.33-.44s-.25.08-.37.27a2,2,0,0,1-1.46,1.09L21.93,27a11.06,11.06,0,0,1-1.76.32l-.31,0A2.4,2.4,0,0,1,18,26.19c-1.09-1.3-1-1.49-1-3.24,0-.2-.08-.44-.28-.44s-.26.37-.33.9-.22,1.26-.52,1.26a1.9,1.9,0,0,1-.69-.14l-1.9-.63c-.7-.24-1.38-.42-1.65-1l-.49-1.12c-.08-.2-.14-.31-.27-.31s-.23.22-.25.4-.08.66-.1.95a3.94,3.94,0,0,1-.87,2.42c-.24.31-.46.63-.73,1A4.16,4.16,0,0,0,8,29v.85C8.06,31.94,8.59,33,12.08,35.74Z"/><path class="cls-3" d="M28.5,17.41h0l.22.6A4,4,0,0,1,29,19.37a3.88,3.88,0,0,1-.2,1.33,8.79,8.79,0,0,0-.33,1.44c-.05-.11-1.12-1.95-1.2-2.1a1,1,0,0,1-.15-.46c0-.19.08-.3.31-.45l.43-.24a1,1,0,0,0,.68-1A2.61,2.61,0,0,0,28.5,17.41Zm-4.63,2.94a1.24,1.24,0,0,1,.11.43.62.62,0,0,1-.22.52l-.28.25a1,1,0,0,0-.38.31c-.18.25-.3.41-.3.55a.14.14,0,0,0,0,.11.76.76,0,0,1-.29-.61c0-.2.06-.3.06-.48a1.3,1.3,0,0,0-.07-.39c-.29-1-.79-2.16-1.1-3s-.55-1.26-.9-1.26c-.2,0-.37.1-.58.1a1.53,1.53,0,0,0,1-.65,1.71,1.71,0,0,0,.37-1.22.75.75,0,0,0-.22-.52,5.92,5.92,0,0,1,1,1.67C22.82,17.61,23.39,19.15,23.87,20.35ZM8,29.87V29a4.16,4.16,0,0,1,.85-2.85c.27-.35.49-.67.73-1a3.94,3.94,0,0,0,.87-2.42c0-.29.07-.75.1-.95s.06-.4.25-.4.19.11.27.31l.49,1.12c.27.63.95.81,1.65,1l1.9.63a1.9,1.9,0,0,0,.69.14c.3,0,.45-.64.52-1.26s.15-.9.33-.9.27.24.28.44c.06,1.75-.05,1.94,1,3.24a2.4,2.4,0,0,0,1.88,1.07.87.87,0,0,1-.54-.92v-.63a2.55,2.55,0,0,1,.19-1c.08-.17.16-.48.24-.66a1.08,1.08,0,0,0,.08-.63,3.74,3.74,0,0,0-.27-1.06c-.1-.29-.23-.72-.36-1.07-.39-1.1-.55-1.36-1.87-1.54l-2.66-.37c-1.47-.21-2.63-.28-3.23-1.27-.72-1.18-.65-2.62-1.34-2.62-.33,0-.5.36-.5.9s.21,1.47.21,3.06a3.38,3.38,0,0,1-.93,2.75c-.2.27-.48.65-.66.88a2.64,2.64,0,0,0-.82,2A29.81,29.81,0,0,0,8,29.87Zm15.07,5.28c.05-.55.29-1.46.29-1.84h0c0-.18-.06-.25-.2-.25s-.52.31-.93.74l-1.73,1.79c-1.44,1.5-1.37,2.76-1.39,4.88h0c1.6-1,3.06-1.89,4.15-2.63A8.37,8.37,0,0,1,23.08,35.15Z"/><path class="cls-1" d="M45.93,6H44.78V4.33h5.37c2.83,0,4.3,1.49,4.3,3.6,0,2.51-2,3.6-4.3,3.6H48.37v2.81h1.16V16H44.78v-1.7h1.15Zm4,3.78a1.82,1.82,0,0,0,2-1.89A1.83,1.83,0,0,0,49.87,6h-1.5V9.82Zm7.54,2.38c.07,1.38,1.14,2.24,2.78,2.24a6.45,6.45,0,0,0,2.71-.56v1.81a8.06,8.06,0,0,1-3.23.55c-3.38,0-4.8-2.1-4.8-4.53,0-2.73,1.65-4.62,4.4-4.62,3,0,4.23,2.28,4.23,5.11ZM61,10.59A1.69,1.69,0,0,0,59.21,8.7c-1.07,0-1.69.7-1.79,1.89Zm61.29,1.61c.07,1.38,1.14,2.24,2.77,2.24a6.51,6.51,0,0,0,2.72-.56v1.81a8.11,8.11,0,0,1-3.23.55c-3.38,0-4.8-2.1-4.8-4.53,0-2.73,1.65-4.62,4.4-4.62,3,0,4.23,2.28,4.23,5.11Zm3.54-1.61a1.68,1.68,0,0,0-1.77-1.89c-1.07,0-1.69.7-1.79,1.89ZM65.7,9H64.56V7.29h3.22l.06,1.15h0a3.09,3.09,0,0,1,2.69-1.35A3.24,3.24,0,0,1,74,10.58v3.76h1V16h-4.3v-1.7h.95V11A1.78,1.78,0,1,0,68,11v3.35h1V16h-4.3v-1.7h1ZM77.11,9H76V7.29h3.21l.06,1.15h0A3.07,3.07,0,0,1,82,7.09a3.23,3.23,0,0,1,3.38,3.49v3.76h1V16h-4.3v-1.7h1V11a1.78,1.78,0,1,0-3.56,0v3.35h1V16h-4.3v-1.7h1Zm37.33-3.58h2.34V7.29h2.34V9h-2.34v3.9c0,1.17.41,1.54,1.38,1.54a5.82,5.82,0,0,0,1-.14V16a8.26,8.26,0,0,1-1.93.27c-1.72,0-2.84-.92-2.84-2.46V9h-1.19V7.29h1.19Zm-15.78,0H101V7.29h2.34V9H101v3.9c0,1.17.41,1.54,1.38,1.54a5.69,5.69,0,0,0,1-.14V16a8,8,0,0,1-1.92.27c-1.73,0-2.84-.92-2.84-2.46V9H97.47V7.29h1.19Zm11.12,5.05c0-1.21-.59-1.67-1.77-1.67a4.39,4.39,0,0,0-1.45.25v1.17h-1.9V8A7.26,7.26,0,0,1,108,7.09c2.44,0,4,1,4,3.45v3.8h.9V16h-2.83L110,14.85h0a3,3,0,0,1-2.79,1.39c-2,0-2.93-1.17-2.93-2.54,0-1.66,1.28-2.81,4.49-2.81h1Zm-.69,1.86c-1.9,0-2.51.4-2.51,1.15,0,.52.37,1.06,1.29,1.06a2,2,0,0,0,1.88-2.21ZM93.94,6.12a5.18,5.18,0,0,0-1.49-.28c-1.36,0-1.9.74-1.9,1.39,0,.85.63,1.25,1.36,1.43L93.07,9c1.64.43,3.45,1.13,3.45,3.55,0,2.23-1.43,3.72-4.59,3.72a11.6,11.6,0,0,1-4-.65V12.5H90V14a9.1,9.1,0,0,0,2.09.33c1.25,0,1.85-.52,1.85-1.41,0-.73-.42-1.26-1.91-1.66l-1-.28C88.78,10.37,88,9.27,88,7.47s1.24-3.34,4.39-3.34A10.38,10.38,0,0,1,96,4.75v2.8h-2.1ZM51.73,31.25a5.82,5.82,0,0,1-2.47.45A4.37,4.37,0,0,1,44.65,27a4.65,4.65,0,0,1,4.88-4.9,5.16,5.16,0,0,1,2.22.41l-.3,1a4.21,4.21,0,0,0-1.88-.39c-2.19,0-3.65,1.4-3.65,3.85,0,2.29,1.32,3.76,3.59,3.76a4.89,4.89,0,0,0,2-.39Zm7.39-3.1a3.28,3.28,0,0,1-3.34,3.56,3.19,3.19,0,0,1-3.22-3.45,3.28,3.28,0,0,1,3.33-3.56A3.18,3.18,0,0,1,59.12,28.15Zm-5.32.07c0,1.47.84,2.58,2,2.58s2-1.1,2-2.61c0-1.13-.57-2.58-2-2.58S53.8,26.94,53.8,28.22Zm6.86-6.5h1.21v9.84H60.66Zm3.27,0h1.22v9.84H63.93Zm3.95,6.71a2.15,2.15,0,0,0,2.3,2.33A4.41,4.41,0,0,0,72,30.41l.21.87A5.3,5.3,0,0,1,70,31.7a3.11,3.11,0,0,1-3.3-3.38c0-2,1.19-3.62,3.15-3.62,2.19,0,2.77,1.93,2.77,3.16,0,.25,0,.44,0,.57Zm3.57-.88a1.74,1.74,0,0,0-1.69-2,2,2,0,0,0-1.87,2Zm8.47-2.7c0,.49-.06,1-.06,1.85v3.89c0,1.54-.3,2.48-1,3.06a3.57,3.57,0,0,1-2.44.81,4.31,4.31,0,0,1-2.23-.56l.3-.93a3.76,3.76,0,0,0,2,.53c1.25,0,2.16-.65,2.16-2.34v-.75h0a2.39,2.39,0,0,1-2.13,1.12,3,3,0,0,1-2.86-3.27c0-2.27,1.49-3.56,3-3.56a2.24,2.24,0,0,1,2.09,1.16h0l0-1ZM78.66,27.5a2,2,0,0,0-.07-.56,1.76,1.76,0,0,0-1.71-1.28c-1.16,0-2,1-2,2.53,0,1.32.66,2.41,2,2.41a1.78,1.78,0,0,0,1.69-1.24,2.16,2.16,0,0,0,.1-.66Zm3.9.93a2.16,2.16,0,0,0,2.31,2.33,4.45,4.45,0,0,0,1.85-.35l.21.87a5.3,5.3,0,0,1-2.23.42,3.11,3.11,0,0,1-3.3-3.38c0-2,1.19-3.62,3.15-3.62,2.19,0,2.77,1.93,2.77,3.16,0,.25,0,.44,0,.57Zm3.58-.88a1.74,1.74,0,0,0-1.69-2,2,2,0,0,0-1.87,2Zm11.7.6a3.28,3.28,0,0,1-3.34,3.56,3.19,3.19,0,0,1-3.22-3.45,3.28,3.28,0,0,1,3.33-3.56A3.18,3.18,0,0,1,97.84,28.15Zm-5.33.07c0,1.47.85,2.58,2,2.58s2-1.1,2-2.61c0-1.13-.57-2.58-2-2.58S92.51,26.94,92.51,28.22Zm7,3.34V25.78h-.94v-.93h.94v-.32a3.15,3.15,0,0,1,.78-2.34,2.32,2.32,0,0,1,1.63-.62,2.8,2.8,0,0,1,1,.19l-.17.94a1.87,1.87,0,0,0-.77-.15c-1,0-1.31.92-1.31,1.94v.36h1.63v.93H100.7v5.78Zm11.74-4.38H107.6v3.37h4.05v1H106.4V22.22h5v1H107.6v2.95h3.64Zm1.94-.51c0-.7,0-1.26-.06-1.82h1.08l.07,1.11h0a2.46,2.46,0,0,1,2.22-1.26c.92,0,2.37.55,2.37,2.85v4h-1.22V27.69c0-1.08-.41-2-1.56-2A1.73,1.73,0,0,0,114.48,27a1.64,1.64,0,0,0-.08.57v4h-1.22Zm13.47-1.82c0,.49-.06,1-.06,1.85v3.89c0,1.54-.3,2.48-1,3.06a3.54,3.54,0,0,1-2.43.81A4.38,4.38,0,0,1,121,33.9l.31-.93a3.76,3.76,0,0,0,2,.53c1.24,0,2.16-.65,2.16-2.34v-.75h0a2.39,2.39,0,0,1-2.13,1.12,3,3,0,0,1-2.86-3.27c0-2.27,1.48-3.56,3-3.56a2.25,2.25,0,0,1,2.1,1.16h0l.06-1Zm-1.26,2.65a2,2,0,0,0-.07-.56,1.77,1.77,0,0,0-1.71-1.28c-1.16,0-2,1-2,2.53,0,1.32.66,2.41,2,2.41a1.79,1.79,0,0,0,1.69-1.24,2.16,2.16,0,0,0,.1-.66Zm4.5-4.53a.76.76,0,0,1-1.51,0,.75.75,0,0,1,.76-.77A.73.73,0,0,1,129.89,23Zm-1.36,8.59V24.85h1.22v6.71Zm3.24-4.89c0-.7,0-1.26-.05-1.82h1.08l.07,1.11h0a2.44,2.44,0,0,1,2.21-1.26c.93,0,2.37.55,2.37,2.85v4h-1.22V27.69c0-1.08-.4-2-1.55-2A1.72,1.72,0,0,0,133.08,27a1.62,1.62,0,0,0-.09.57v4h-1.22Zm8.37,1.76a2.15,2.15,0,0,0,2.3,2.33,4.47,4.47,0,0,0,1.86-.35l.21.87a5.34,5.34,0,0,1-2.23.42,3.11,3.11,0,0,1-3.3-3.38c0-2,1.19-3.62,3.14-3.62,2.19,0,2.78,1.93,2.78,3.16,0,.25,0,.44,0,.57Zm3.58-.88a1.74,1.74,0,0,0-1.69-2,2,2,0,0,0-1.87,2Zm3.37.88a2.15,2.15,0,0,0,2.3,2.33,4.41,4.41,0,0,0,1.85-.35l.21.87a5.3,5.3,0,0,1-2.23.42,3.12,3.12,0,0,1-3.3-3.38c0-2,1.19-3.62,3.15-3.62,2.19,0,2.77,1.93,2.77,3.16,0,.25,0,.44,0,.57Zm3.57-.88a1.73,1.73,0,0,0-1.69-2,2,2,0,0,0-1.87,2Zm2.69-.61c0-.79,0-1.46-.06-2.09h1.07l0,1.32h.06a2,2,0,0,1,1.86-1.47,1.22,1.22,0,0,1,.34,0v1.15a1.68,1.68,0,0,0-.41,0,1.72,1.72,0,0,0-1.64,1.57,3.15,3.15,0,0,0-.05.56v3.58h-1.21Zm5.94-4a.72.72,0,0,1-.77.75.73.73,0,0,1-.74-.75.75.75,0,0,1,.77-.77A.73.73,0,0,1,159.29,23Zm-1.35,8.59V24.85h1.22v6.71Zm3.24-4.89c0-.7,0-1.26-.06-1.82h1.08l.07,1.11h0a2.46,2.46,0,0,1,2.22-1.26c.93,0,2.37.55,2.37,2.85v4h-1.22V27.69c0-1.08-.4-2-1.55-2A1.74,1.74,0,0,0,162.48,27a1.91,1.91,0,0,0-.08.57v4h-1.22Zm13.47-1.82c0,.49-.06,1-.06,1.85v3.89c0,1.54-.3,2.48-1,3.06a3.57,3.57,0,0,1-2.44.81A4.31,4.31,0,0,1,169,33.9l.3-.93a3.76,3.76,0,0,0,2,.53c1.25,0,2.16-.65,2.16-2.34v-.75h0a2.39,2.39,0,0,1-2.13,1.12,3,3,0,0,1-2.86-3.27c0-2.27,1.49-3.56,3-3.56a2.24,2.24,0,0,1,2.09,1.16h0l.05-1Zm-1.26,2.65a2,2,0,0,0-.07-.56,1.76,1.76,0,0,0-1.71-1.28c-1.16,0-2,1-2,2.53,0,1.32.66,2.41,2,2.41a1.78,1.78,0,0,0,1.69-1.24,2.16,2.16,0,0,0,.1-.66Z"/></g></g></svg>